<?xml version="1.0" encoding="utf-8"?>
<!-- Generator: Adobe Illustrator 22.0.0, SVG Export Plug-In . SVG Version: 6.00 Build 0)  -->
<!DOCTYPE svg PUBLIC "-//W3C//DTD SVG 1.1//EN" "http://www.w3.org/Graphics/SVG/1.1/DTD/svg11.dtd" [
	<!ENTITY ns_extend "http://ns.adobe.com/Extensibility/1.0/">
	<!ENTITY ns_ai "http://ns.adobe.com/AdobeIllustrator/10.0/">
	<!ENTITY ns_graphs "http://ns.adobe.com/Graphs/1.0/">
	<!ENTITY ns_vars "http://ns.adobe.com/Variables/1.0/">
	<!ENTITY ns_imrep "http://ns.adobe.com/ImageReplacement/1.0/">
	<!ENTITY ns_sfw "http://ns.adobe.com/SaveForWeb/1.0/">
	<!ENTITY ns_custom "http://ns.adobe.com/GenericCustomNamespace/1.0/">
	<!ENTITY ns_adobe_xpath "http://ns.adobe.com/XPath/1.0/">
]>
<svg version="1.1" id="图层_1" xmlns:x="&ns_extend;" xmlns:i="&ns_ai;" xmlns:graph="&ns_graphs;"
	 xmlns="http://www.w3.org/2000/svg" xmlns:xlink="http://www.w3.org/1999/xlink" x="0px" y="0px" width="" viewBox="250 200 95.3 441.9" xml:space="preserve">
	<g>
		<g>
			<path fill="#B4AC8F" d="M209.8,522.5c-3.7,0.8-8.1,1.6-11.7,2.3c0.5-2,1.9-7.8,2.9-11.5l-2.8-2.9l-3.3,14.5c0,0.2-0.1,0.4-0.3,0.6
				l-6,5.7l2.4,2.6l6.1-5.8c0.2-0.2,0.3-0.3,0.5-0.3l14.7-2.5L209.8,522.5z"/>
			<path fill="#B4AC8F" d="M225.4,551.7c-1.9,2.7-4.2,3.9-7.8,1.5c-3.6-2.5-3.4-5.2-1.6-7.8l7.7-11.2l-2.9-2l-7.8,11.4
				c-2.8,4-2.3,7.9,3.2,11.7c5.9,4,9.7,2.4,12.2-1.3l7.7-11.3l-3-2L225.4,551.7z"/>
			<polygon fill="#B4AC8F" points="241.1,569.1 255.5,574.8 256.9,572.7 245.3,568 248,561.2 258.6,565.4 259.5,563 249,558.8 
				251.4,552.9 262.4,557.3 263.3,555 249.1,549.3 			"/>
			<path fill="#B4AC8F" d="M283.6,559.6c-4.7-0.8-8.2,0.8-8.8,4.2c-0.5,3,1.2,4.9,6.3,7.2c4,1.8,5.2,3,4.8,5.3
				c-0.4,2.2-2.4,3.1-5.4,2.6c-2.9-0.5-4.7-2.2-4.8-4.8l-3.5-0.6c-0.3,3.9,2.4,6.8,7.6,7.8c5.7,1,9-1.1,9.6-4.6
				c0.5-2.9-0.7-5.2-6.6-7.9c-3.7-1.7-4.9-2.6-4.6-4.5c0.3-1.8,1.9-2.7,4.7-2.2c3,0.5,4.1,2.1,4.1,4.2l3.4,0.6
				C291,563.6,289.1,560.6,283.6,559.6z"/>
			<path fill="#B4AC8F" d="M315.3,581.1c-5.2,0.2-7-4-7.1-8.4c-0.2-4.4,1.6-8.4,6.4-8.6c3.7-0.1,5.2,1.6,5.9,3.9l3.5-0.1
				c-0.6-3.5-3.4-6.5-9.4-6.3c-7.2,0.3-10.3,5.5-10.1,11.2c0.2,6.3,3.2,11,10.8,10.7c6.1-0.2,8.6-3.5,9.2-7l-3.5,0.1
				C320.4,579,319,581,315.3,581.1z"/>
			<path fill="#B4AC8F" d="M356.7,570.7c-0.7-2.8-2.2-4.2-4.9-4.2c1.8-1.1,3.5-2.9,2.7-5.9c-0.9-3.5-4.5-4.6-8.9-3.4l-8.9,2.3l5.3,20.6
				l3.4-0.9L343,570l4.1-1.1c3.9-1,5.4-0.2,6.1,2.6l0.1,0.4c0.6,2.2,1.1,4,1.7,4.8l3.4-0.9c-0.6-1.1-1.1-2.9-1.6-4.8L356.7,570.7z
				 M346.8,566.5l-4.4,1.1l-1.7-6.7l5.1-1.3c2.8-0.7,4.8-0.1,5.3,2C351.8,564.5,349.8,565.8,346.8,566.5z"/>
			
				<rect x="370.4" y="548.3" transform="matrix(0.9105 -0.4136 0.4136 0.9105 -197.8473 203.9409)" fill="#B4AC8F" width="3.5" height="21.3"/>
			<path fill="#B4AC8F" d="M390,536.6l-7.2,4.9l12,17.6l2.9-2l-5.1-7.4l3.9-2.7c4.3-2.9,6.1-6.7,3.7-10.2
				C398.1,533.6,393.9,533.9,390,536.6z M395.1,545.1l-3.7,2.6l-4.2-6.2l3.8-2.6c2.6-1.8,5-2,6.4,0
				C399,541.3,397.7,543.3,395.1,545.1z"/>
			<polygon fill="#B4AC8F" points="419.6,513.4 417.7,511.6 405.1,524.8 407,526.5 412,521.2 425.6,534.2 428.1,531.6 414.5,518.7 			
				"/>
			<path fill="#B4AC8F" d="M334.2,260.2c-2.1-0.3-4.2-0.6-6.3-0.9v14.4v0.5c22.4,24.2,36.9,55.9,39,90.9H228.7c0,0-14,0.7-14,12.3
				c0,12.1,11.1,14.1,13.9,14.1s69.4,0,69.4,0s8.7-0.5,8.7,6.1c0,6.3-6.4,6-8.6,6H156.6c11-74.3,69.2-133.2,143.1-145.3
				c-79.7,4.2-144.2,66.5-151.9,145.3h-41.1c0,0-15.3-1.8-15.3,11.5c0,13.3,11.5,12.8,14.7,12.8c0.6,0,19.5,0,41.1,0
				c1.5,28.3,10.4,54.8,24.7,77.4l0.1-0.1c-8.8-17.9-14.5-37.6-16.6-58.4c31.5,0,73,0,75.3,0c3.6,0,13.7-0.5,13.7-12.2
				c0-11.6-12.4-11.9-12.4-11.9l-101.8,0c0,0-8.9,0.7-8.9-6.4s5.8-7.4,8.4-7.4c0.6,0,190.5,0,190.5,0s14.6,1.6,14.6-11.9
				c0-12-12.8-11.5-17.5-11.5c-4.7,0-65.1,0-65.1,0s-9.7,0.4-9.7-6.9c0-7.3,8.2-6.9,9.6-6.9c0.7,0,59.7,0,114.7,0c0,0.7,0,1.5,0,2.2
				c0,38.5-14.9,73.6-39.3,99.8v0c-21.6,23.3-50.7,39.6-83.5,45.1c6.3,3.9,12.9,7.3,19.8,10.2c23.9-6.8,45.6-19,63.6-35.2v0
				c14.7-13.2,27-29.2,36.1-47h71.1v-6.7h-67.9c9.1-20.2,14.2-42.6,14.2-66.2c0-0.7,0-1.5,0-2.2c26.9,0,51.4,0,65.9,0
				c5.1,14.9,7.9,30.8,7.9,47.4c0,27.5-7.6,53.3-20.9,75.4l11.2,9.1c15.2-24.6,24-53.5,24-84.5C469.4,339.2,410.8,272.6,334.2,260.2
				z M216.9,435.3c0,6.5-6.3,6.9-6.3,6.9s-27,0-55.4,0c-0.3-4.3-0.5-8.6-0.5-12.9c0-0.5,0-0.9,0-1.4c27.4,0,56.2,0,56.5,0
				C212.2,428,216.9,428.8,216.9,435.3z M381.2,365.1c-1.8-32.4-13.1-62.2-31.3-86.7c43.3,12.8,78.4,45.1,95,86.7H381.2z"/>
		</g>
	</g>
</svg>
